<?xml version="1.0" encoding="utf-8"?>
<svg version="1.1" id="svg2" width="384" height="96" viewBox="0 0 384 96" xmlns:sodipodi="http://sodipodi.sourceforge.net/DTD/sodipodi-0.dtd" xmlns="http://www.w3.org/2000/svg">
  <defs id="defs6">
    <clipPath clipPathUnits="userSpaceOnUse" id="clipPath16">
      <path d="M 0,72 H 288 V 0 H 0 Z" id="path14"/>
    </clipPath>
    <linearGradient x1="0" y1="0" x2="1" y2="0" gradientUnits="userSpaceOnUse" gradientTransform="matrix(2.3356378,-10.121098,-10.121098,-2.3356378,24.685009,58.861614)" spreadMethod="pad" id="linearGradient68">
      <stop style="stop-opacity:1;stop-color:#4285f4" offset="0" id="stop64"/>
      <stop style="stop-opacity:1;stop-color:#7c42c0" offset="1" id="stop66"/>
    </linearGradient>
    <clipPath clipPathUnits="userSpaceOnUse" id="clipPath78">
      <path d="M 0,72 H 288 V 0 H 0 Z" id="path76"/>
    </clipPath>
    <linearGradient x1="0" y1="0" x2="1" y2="0" gradientUnits="userSpaceOnUse" gradientTransform="matrix(11.957922,2.7595251,2.7595251,-11.957922,8.9990377,55.675362)" spreadMethod="pad" id="linearGradient112">
      <stop style="stop-opacity:1;stop-color:#7c42c0" offset="0" id="stop104"/>
      <stop style="stop-opacity:1;stop-color:#7c42c0" offset="0.0942" id="stop106"/>
      <stop style="stop-opacity:1;stop-color:#d665c9" offset="0.7834" id="stop108"/>
      <stop style="stop-opacity:1;stop-color:#d665c9" offset="1" id="stop110"/>
    </linearGradient>
    <linearGradient x1="0" y1="0" x2="1" y2="0" gradientUnits="userSpaceOnUse" gradientTransform="matrix(2.7595208,-11.957924,-11.957924,-2.7595208,14.003966,15.1513)" spreadMethod="pad" id="linearGradient136">
      <stop style="stop-opacity:1;stop-color:#7c42c0" offset="0" id="stop128"/>
      <stop style="stop-opacity:1;stop-color:#7c42c0" offset="0.0942" id="stop130"/>
      <stop style="stop-opacity:1;stop-color:#d665c9" offset="0.7834" id="stop132"/>
      <stop style="stop-opacity:1;stop-color:#d665c9" offset="1" id="stop134"/>
    </linearGradient>
    <linearGradient x1="0" y1="0" x2="1" y2="0" gradientUnits="userSpaceOnUse" gradientTransform="matrix(-11.957922,-2.7595258,-2.7595258,11.957922,60.562279,16.27224)" spreadMethod="pad" id="linearGradient160">
      <stop style="stop-opacity:1;stop-color:#7c42c0" offset="0" id="stop152"/>
      <stop style="stop-opacity:1;stop-color:#7c42c0" offset="0.0942" id="stop154"/>
      <stop style="stop-opacity:1;stop-color:#d665c9" offset="0.7834" id="stop156"/>
      <stop style="stop-opacity:1;stop-color:#d665c9" offset="1" id="stop158"/>
    </linearGradient>
    <linearGradient x1="0" y1="0" x2="1" y2="0" gradientUnits="userSpaceOnUse" gradientTransform="matrix(2.7595205,-11.957923,-11.957923,-2.7595205,54.51638,60.950279)" spreadMethod="pad" id="linearGradient184">
      <stop style="stop-opacity:1;stop-color:#7c42c0" offset="0" id="stop176"/>
      <stop style="stop-opacity:1;stop-color:#7c42c0" offset="0.0942" id="stop178"/>
      <stop style="stop-opacity:1;stop-color:#d665c9" offset="0.7834" id="stop180"/>
      <stop style="stop-opacity:1;stop-color:#d665c9" offset="1" id="stop182"/>
    </linearGradient>
    <clipPath clipPathUnits="userSpaceOnUse" id="clipPath194">
      <path d="M 0,72 H 288 V 0 H 0 Z" id="path192"/>
    </clipPath>
    <linearGradient x1="0" y1="0" x2="1" y2="0" gradientUnits="userSpaceOnUse" gradientTransform="matrix(7.4912767,0,0,-7.4912767,34.714668,58.752323)" spreadMethod="pad" id="linearGradient216">
      <stop style="stop-opacity:1;stop-color:#4285f4" offset="0" id="stop212"/>
      <stop style="stop-opacity:1;stop-color:#7c42c0" offset="1" id="stop214"/>
    </linearGradient>
    <linearGradient x1="0" y1="0" x2="1" y2="0" gradientUnits="userSpaceOnUse" gradientTransform="matrix(-7.4889927,0.1849739,0.1849739,7.4889927,34.765888,12.710709)" spreadMethod="pad" id="linearGradient236">
      <stop style="stop-opacity:1;stop-color:#4285f4" offset="0" id="stop232"/>
      <stop style="stop-opacity:1;stop-color:#7c42c0" offset="1" id="stop234"/>
    </linearGradient>
    <linearGradient x1="0" y1="0" x2="1" y2="0" gradientUnits="userSpaceOnUse" gradientTransform="matrix(4.175139,-18.09227,-18.09227,-4.175139,13.085417,30.153589)" spreadMethod="pad" id="linearGradient256">
      <stop style="stop-opacity:1;stop-color:#4285f4" offset="0" id="stop252"/>
      <stop style="stop-opacity:1;stop-color:#7c42c0" offset="1" id="stop254"/>
    </linearGradient>
    <linearGradient x1="0" y1="0" x2="1" y2="0" gradientUnits="userSpaceOnUse" gradientTransform="matrix(-21.431957,34.990948,34.990948,21.431957,65.480385,29.431402)" spreadMethod="pad" id="linearGradient276">
      <stop style="stop-opacity:1;stop-color:#4285f4" offset="0" id="stop272"/>
      <stop style="stop-opacity:1;stop-color:#7c42c0" offset="1" id="stop274"/>
    </linearGradient>
    <linearGradient x1="0" y1="0" x2="1" y2="0" gradientUnits="userSpaceOnUse" gradientTransform="matrix(41.114361,25.368437,25.368437,-41.114361,23.822527,2.4520597)" spreadMethod="pad" id="linearGradient296">
      <stop style="stop-opacity:1;stop-color:#4285f4" offset="0" id="stop292"/>
      <stop style="stop-opacity:1;stop-color:#7c42c0" offset="1" id="stop294"/>
    </linearGradient>
    <linearGradient x1="0" y1="0" x2="1" y2="0" gradientUnits="userSpaceOnUse" gradientTransform="matrix(1.9315977,-8.5011835,-8.5011835,-1.9315977,54.744507,38.134411)" spreadMethod="pad" id="linearGradient320">
      <stop style="stop-opacity:1;stop-color:#7c42c0" offset="0" id="stop312"/>
      <stop style="stop-opacity:1;stop-color:#7c42c0" offset="0.0942" id="stop314"/>
      <stop style="stop-opacity:1;stop-color:#d665c9" offset="0.7834" id="stop316"/>
      <stop style="stop-opacity:1;stop-color:#d665c9" offset="1" id="stop318"/>
    </linearGradient>
    <linearGradient x1="0" y1="0" x2="1" y2="0" gradientUnits="userSpaceOnUse" gradientTransform="matrix(-1.9602951,8.4946117,8.4946117,1.9602951,14.980411,33.848221)" spreadMethod="pad" id="linearGradient344">
      <stop style="stop-opacity:1;stop-color:#7c42c0" offset="0" id="stop336"/>
      <stop style="stop-opacity:1;stop-color:#7c42c0" offset="0.0942" id="stop338"/>
      <stop style="stop-opacity:1;stop-color:#d665c9" offset="0.7834" id="stop340"/>
      <stop style="stop-opacity:1;stop-color:#d665c9" offset="1" id="stop342"/>
    </linearGradient>
  </defs>
  <sodipodi:namedview id="namedview4" pagecolor="#ffffff" bordercolor="#000000" borderopacity="0.25"/>
  <style>
    path { fill: rgb(95, 99, 104); }
    @media (prefers-color-scheme: dark) {
    path { fill: white; }
    }
  </style>
  <g id="g12" clip-path="url(#clipPath16)" transform="matrix(1.333333, 0, 0, -1.333333, 0, 96)">
    <g id="g18" transform="translate(128.6157,25.6342)">
      <path d="M 0,0 -4.216,6.3 -1.017,8.481 3.15,2.229 c 1.357,1.26 2.406,2.787 3.15,4.58 0.743,1.793 1.114,3.755 1.114,5.888 0,2.745 -0.605,5.193 -1.817,7.342 -1.211,2.148 -2.859,3.828 -4.943,5.039 -2.084,1.212 -4.37,1.818 -6.857,1.818 -2.488,0 -4.773,-0.606 -6.857,-1.818 -2.084,-1.211 -3.732,-2.891 -4.943,-5.039 -1.212,-2.149 -1.817,-4.597 -1.817,-7.342 0,-2.747 0.605,-5.194 1.817,-7.342 1.211,-2.149 2.859,-3.828 4.943,-5.04 2.084,-1.211 4.369,-1.817 6.857,-1.817 2.132,0 4.199,0.5 6.203,1.502 m 2.278,-3.247 c -2.682,-1.454 -5.509,-2.181 -8.481,-2.181 -3.36,0 -6.389,0.808 -9.086,2.423 -2.698,1.616 -4.822,3.805 -6.373,6.567 -1.551,2.762 -2.326,5.807 -2.326,9.135 0,3.327 0.775,6.372 2.326,9.134 1.551,2.763 3.683,4.951 6.397,6.567 2.714,1.615 5.734,2.423 9.062,2.423 3.327,0 6.348,-0.806 9.062,-2.417 2.714,-1.611 4.846,-3.802 6.397,-6.573 1.551,-2.771 2.326,-5.799 2.326,-9.085 0,-2.739 -0.541,-5.308 -1.624,-7.708 C 8.876,2.637 7.366,0.599 5.427,-1.076 L 7.802,-4.652 4.604,-6.833 Z" style="fill-opacity: 1; fill-rule: nonzero; stroke: none;" id="path20"/>
    </g>
    <g id="g22" transform="translate(147.4422,22.7751)">
      <path d="M 0,0 C -1.535,1.712 -2.302,4.087 -2.302,7.124 V 22.243 H 1.817 V 7.802 c 0,-4.427 1.987,-6.639 5.961,-6.639 1.324,0 2.512,0.371 3.562,1.115 1.049,0.742 1.857,1.712 2.423,2.907 0.565,1.195 0.848,2.455 0.848,3.78 v 13.278 h 4.071 V -1.793 H 14.805 V 1.793 H 14.611 C 13.9,0.565 12.825,-0.469 11.388,-1.309 9.95,-2.148 8.408,-2.569 6.76,-2.569 3.787,-2.569 1.534,-1.713 0,0" style="fill-opacity: 1; fill-rule: nonzero; stroke: none;" id="path24"/>
    </g>
    <g id="g26" transform="translate(183.7634,24.8589)">
      <path d="m 0,0 c 1.163,0.678 2.108,1.599 2.835,2.762 0.727,1.163 1.09,2.423 1.09,3.78 -1.81,1.163 -3.893,1.745 -6.251,1.745 -2.035,0 -3.659,-0.461 -4.871,-1.381 -1.211,-0.921 -1.817,-2.093 -1.817,-3.514 0,-1.292 0.533,-2.35 1.6,-3.174 1.066,-0.824 2.309,-1.236 3.731,-1.236 1.292,0 2.52,0.34 3.683,1.018 m -8.747,-3.61 c -1.406,0.694 -2.504,1.663 -3.296,2.907 -0.792,1.244 -1.187,2.641 -1.187,4.192 0,2.552 0.961,4.539 2.883,5.961 1.923,1.421 4.386,2.132 7.391,2.132 1.486,0 2.826,-0.162 4.022,-0.485 1.195,-0.323 2.148,-0.678 2.859,-1.066 v 1.26 c 0,1.163 -0.299,2.205 -0.896,3.126 -0.599,0.921 -1.398,1.631 -2.399,2.132 -1.002,0.501 -2.084,0.751 -3.247,0.751 -2.746,0 -4.846,-1.114 -6.3,-3.343 l -3.441,2.277 c 1.001,1.486 2.326,2.641 3.974,3.465 1.648,0.824 3.505,1.236 5.573,1.236 3.296,0 5.896,-0.889 7.802,-2.665 1.906,-1.778 2.86,-4.168 2.86,-7.173 V -3.877 H 3.925 v 3.538 H 3.731 C 2.956,-1.567 1.906,-2.593 0.581,-3.417 -0.744,-4.24 -2.278,-4.652 -4.022,-4.652 c -1.745,0 -3.32,0.347 -4.725,1.042" style="fill-opacity: 1; fill-rule: nonzero; stroke: none;" id="path28"/>
    </g>
    <path d="m 197.235,55.68 h 4.119 V 20.982 h -4.119 z" style="fill-opacity: 1; fill-rule: nonzero; stroke: none;" id="path30"/>
    <g id="g32" transform="translate(214.1709,20.7002)">
      <path d="M 0,0 C -0.823,0.329 -1.526,0.773 -2.108,1.333 -2.754,1.958 -3.231,2.69 -3.537,3.529 -3.845,4.368 -3.998,5.364 -3.998,6.516 v 14.071 h -4.264 v 3.731 h 4.264 V 31.49 H 0.073 V 24.318 H 5.985 V 20.587 H 0.073 V 7.499 c 0,-1.388 0.274,-2.413 0.824,-3.074 0.549,-0.727 1.388,-1.09 2.52,-1.09 1.001,0 1.873,0.225 2.617,0.678 V 0.039 C 5.516,-0.154 5.024,-0.291 4.555,-0.373 4.087,-0.453 3.465,-0.494 2.69,-0.494 1.721,-0.494 0.824,-0.329 0,0" style="fill-opacity: 1; fill-rule: nonzero; stroke: none;" id="path34"/>
    </g>
    <g id="g36" transform="translate(224.9529,45.0184)">
      <path d="m 0,0 h 3.925 v -3.925 h 0.194 c 0.452,1.324 1.382,2.439 2.787,3.343 1.405,0.905 2.802,1.357 4.192,1.357 1.001,0 1.938,-0.162 2.81,-0.484 v -4.41 c -0.872,0.484 -2.003,0.727 -3.392,0.727 -1.131,0 -2.189,-0.333 -3.174,-0.996 C 6.356,-5.052 5.573,-5.934 4.991,-7.035 4.41,-8.136 4.119,-9.335 4.119,-10.629 V -24.036 H 0 Z" style="fill-opacity: 1; fill-rule: nonzero; stroke: none;" id="path38"/>
    </g>
    <g id="g40" transform="translate(253.5452,24.8589)">
      <path d="m 0,0 c 1.163,0.678 2.108,1.599 2.835,2.762 0.727,1.163 1.09,2.423 1.09,3.78 -1.81,1.163 -3.893,1.745 -6.251,1.745 -2.035,0 -3.659,-0.461 -4.87,-1.381 -1.212,-0.921 -1.818,-2.093 -1.818,-3.514 0,-1.292 0.533,-2.35 1.6,-3.174 1.066,-0.824 2.309,-1.236 3.731,-1.236 1.292,0 2.52,0.34 3.683,1.018 m -8.747,-3.61 c -1.406,0.694 -2.504,1.663 -3.295,2.907 -0.793,1.244 -1.188,2.641 -1.188,4.192 0,2.552 0.961,4.539 2.884,5.961 1.922,1.421 4.385,2.132 7.39,2.132 1.486,0 2.827,-0.162 4.022,-0.485 1.195,-0.323 2.148,-0.678 2.859,-1.066 v 1.26 c 0,1.163 -0.299,2.205 -0.896,3.126 -0.599,0.921 -1.398,1.631 -2.399,2.132 -1.002,0.501 -2.084,0.751 -3.247,0.751 -2.746,0 -4.846,-1.114 -6.3,-3.343 l -3.44,2.277 c 1,1.486 2.325,2.641 3.973,3.465 1.648,0.824 3.505,1.236 5.574,1.236 3.295,0 5.895,-0.889 7.801,-2.665 C 6.897,16.492 7.85,14.102 7.85,11.097 V -3.877 H 3.925 v 3.538 H 3.732 C 2.956,-1.567 1.906,-2.593 0.581,-3.417 -0.744,-4.24 -2.278,-4.652 -4.022,-4.652 c -1.745,0 -3.32,0.347 -4.725,1.042" style="fill-opacity: 1; fill-rule: nonzero; stroke: none;" id="path42"/>
    </g>
    <g id="g44" transform="translate(267.0165,45.0184)">
      <path d="m 0,0 h 3.925 v -3.586 h 0.194 c 0.679,1.227 1.745,2.261 3.199,3.101 1.453,0.84 3.004,1.26 4.652,1.26 2.939,0 5.177,-0.856 6.712,-2.568 1.534,-1.713 2.301,-4.055 2.301,-7.027 v -15.216 h -4.07 V -9.45 c 0,4.329 -2.02,6.494 -6.058,6.494 -1.292,0 -2.456,-0.372 -3.489,-1.115 C 6.332,-4.814 5.532,-5.783 4.967,-6.978 4.402,-8.174 4.119,-9.434 4.119,-10.758 V -24.036 H 0 Z" style="fill-opacity: 1; fill-rule: nonzero; stroke: none;" id="path46"/>
    </g>
    <g id="g48" transform="translate(8.6702,51.4705)">
      <path d="M 0,0 V -8.632 H -8.632 V 0 Z" style="fill-opacity: 1; fill-rule: nonzero; stroke: none; fill: rgb(67, 132, 243);" id="path50"/>
    </g>
  </g>
  <g id="g52" transform="matrix(1.333333, 0, 0, -1.333333, 0, 96)">
    <g id="g54">
      <g id="g60">
        <g id="g62">
          <path d="m 9.797,51.47 v -4.874 -3.758 l 30.735,19.255 v 3.757 4.875 z" style="fill:url(#linearGradient68);stroke:none" id="path70"/>
        </g>
      </g>
    </g>
  </g>
  <g id="g72" transform="matrix(1.333333, 0, 0, -1.333333, 0, 96)">
    <g id="g74" clip-path="url(#clipPath78)">
      <g id="g80" transform="translate(28.018,9.9073)">
        <path d="M 0,0 V -8.632 H -8.632 V 0 Z" style="fill:#4384f3;fill-opacity:1;fill-rule:nonzero;stroke:none" id="path82"/>
      </g>
      <g id="g84" transform="translate(69.5235,29.1619)">
        <path d="M 0,0 V -8.632 H -8.632 V 0 Z" style="fill:#4384f3;fill-opacity:1;fill-rule:nonzero;stroke:none" id="path86"/>
      </g>
      <g id="g88" transform="translate(50.2689,62.0286)">
        <path d="M 0,0 H -8.632 V 8.632 H 0 Z" style="fill:#4384f3;fill-opacity:1;fill-rule:nonzero;stroke:none" id="path90"/>
      </g>
    </g>
  </g>
  <g id="g92" transform="matrix(1.333333, 0, 0, -1.333333, 0, 96)">
    <g id="g94">
      <g id="g100">
        <g id="g102">
          <path d="M 6.642,56.582 0.038,52.493 h 8.633 l 13.942,8.633 c -5.643,0 -11.173,-1.574 -15.971,-4.544" style="fill:url(#linearGradient112);stroke:none" id="path114"/>
        </g>
      </g>
    </g>
  </g>
  <g id="g116" transform="matrix(1.333333, 0, 0, -1.333333, 0, 96)">
    <g id="g118">
      <g id="g124">
        <g id="g126">
          <path d="M 14.232,7.879 18.32,1.275 V 9.907 L 9.688,23.851 c 0,-5.643 1.574,-11.175 4.544,-15.972" style="fill:url(#linearGradient136);stroke:none" id="path138"/>
        </g>
      </g>
    </g>
  </g>
  <g id="g140" transform="matrix(1.333333, 0, 0, -1.333333, 0, 96)">
    <g id="g142">
      <g id="g148">
        <g id="g150">
          <path d="M 60.891,19.454 46.948,10.822 c 5.643,0 11.174,1.574 15.972,4.544 v 0 l 6.603,4.088 z" style="fill:url(#linearGradient160);stroke:none" id="path162"/>
        </g>
      </g>
    </g>
  </g>
  <g id="g164" transform="matrix(1.333333, 0, 0, -1.333333, 0, 96)">
    <g id="g166">
      <g id="g172">
        <g id="g174">
          <path d="m 51.334,61.279 8.633,-13.943 c 0,5.643 -1.574,11.174 -4.544,15.972 v 0 l -4.089,6.603 z" style="fill:url(#linearGradient184);stroke:none" id="path186"/>
        </g>
      </g>
    </g>
  </g>
  <g id="g188" transform="matrix(1.333333, 0, 0, -1.333333, 0, 96)">
    <g id="g190" clip-path="url(#clipPath194)">
      <g id="g196" transform="translate(29.3351,4.9834)">
        <path d="M 0,0 30.546,20.123" style="fill:none;stroke:#ffffff;stroke-width:0.855;stroke-linecap:butt;stroke-linejoin:miter;stroke-miterlimit:10;stroke-dasharray:none;stroke-opacity:1" id="path198"/>
      </g>
    </g>
  </g>
  <g id="g200" transform="matrix(1.333333, 0, 0, -1.333333, 0, 96)">
    <g id="g202">
      <g id="g208">
        <g id="g210">
          <path d="m 34.715,56.967 7.491,0.718 -1.783,2.852 z" style="fill:url(#linearGradient216);stroke:none" id="path218"/>
        </g>
      </g>
    </g>
  </g>
  <g id="g220" transform="matrix(1.333333, 0, 0, -1.333333, 0, 96)">
    <g id="g222">
      <g id="g228">
        <g id="g230">
          <path d="m 27.303,13.964 1.712,-2.897 5.795,3.428 z" style="fill:url(#linearGradient236);stroke:none" id="path238"/>
        </g>
      </g>
    </g>
  </g>
  <g id="g240" transform="matrix(1.333333, 0, 0, -1.333333, 0, 96)">
    <g id="g242">
      <g id="g248">
        <g id="g250">
          <path d="M 3.758,41.803 H 1.025 0 L 19.255,11.067 h 1.025 2.732 4.875 L 8.633,41.803 Z" style="fill:url(#linearGradient256);stroke:none" id="path258"/>
        </g>
      </g>
    </g>
  </g>
  <g id="g260" transform="matrix(1.333333, 0, 0, -1.333333, 0, 96)">
    <g id="g262">
      <g id="g268">
        <g id="g270">
          <path d="M 46.948,60.963 H 46.53 41.637 L 60.891,30.227 h 4.894 0.417 3.321 L 50.269,60.963 Z" style="fill:url(#linearGradient276);stroke:none" id="path278"/>
        </g>
      </g>
    </g>
  </g>
  <g id="g280" transform="matrix(1.333333, 0, 0, -1.333333, 0, 96)">
    <g id="g282">
      <g id="g288">
        <g id="g290">
          <path d="M 29.145,9.907 V 5.033 4.596 1.275 L 59.881,20.53 v 3.321 0.436 4.875 z" style="fill:url(#linearGradient296);stroke:none" id="path298"/>
        </g>
      </g>
    </g>
  </g>
  <g id="g300" transform="matrix(1.333333, 0, 0, -1.333333, 0, 96)">
    <g id="g302">
      <g id="g308">
        <g id="g310">
          <path d="m 55.727,27.801 3.905,2.403 -8.585,13.972 c -0.019,-5.642 1.725,-11.567 4.68,-16.375" style="fill:url(#linearGradient320);stroke:none" id="path322"/>
        </g>
      </g>
    </g>
  </g>
  <g id="g324" transform="matrix(1.333333, 0, 0, -1.333333, 0, 96)">
    <g id="g326">
      <g id="g332">
        <g id="g334">
          <path d="m 10.066,41.762 8.632,-13.943 c 0,5.643 -1.764,11.561 -4.734,16.359 v 0 z" style="fill:url(#linearGradient344);stroke:none" id="path346"/>
        </g>
      </g>
    </g>
  </g>
</svg>
