<svg xmlns="http://www.w3.org/2000/svg" width="205.27" height="48" viewBox="0 0 205.27 48">
  <defs>
    <style>
      .text {fill: rgb(95, 99, 104);}
      @media (prefers-color-scheme: dark) {
        .text {fill: white;}
      }
    </style>
  </defs>
  <g>
    <g>
      <path d="M10.75,8.63v5l5.45,3.13v24L4.77,34.24V0L0,2.74V36.21L20.55,48V14.25Z" style="fill: #fac300"/>
      <path d="M5.58.47V33.75l9.8,5.62v-5L9.93,31.25V19.12L7.75,17.87l2.18-4.71V7.22l11.44,6.56V47.53L25.72,45V12Z" style="fill: #1967d2"/>
      <path d="M5.58,33.75l9.8,5.62v-5L9.93,31.25Z" style="fill: #174ea6"/>
      <path d="M10.75,8.63v5l5.45,3.13,4.35-2.5Z" style="fill: #f9ab00"/>
    </g>
    <path class="text" d="M80.91,21.13h2.83V36.2H81V34.11h-.12a5,5,0,0,1-2,1.85,5.71,5.71,0,0,1-2.79.74,5.57,5.57,0,0,1-4.26-1.59,6.31,6.31,0,0,1-1.49-4.5V21.13h2.83v9.29q.09,3.69,3.72,3.69a3.54,3.54,0,0,0,2.83-1.37,5,5,0,0,0,1.14-3.28V21.13Zm18.61,5.78V36.2H96.81V34.1h-.12A5.39,5.39,0,0,1,92,36.69a6,6,0,0,1-4.16-1.48,4.7,4.7,0,0,1-1.68-3.69,4.48,4.48,0,0,1,1.77-3.72,7.46,7.46,0,0,1,4.72-1.38,8.39,8.39,0,0,1,4.15.92V26.7a3.22,3.22,0,0,0-1.17-2.51,4,4,0,0,0-2.73-1,4.34,4.34,0,0,0-3.76,2l-2.49-1.57a6.93,6.93,0,0,1,6.09-2.95,7,7,0,0,1,5,1.67A6,6,0,0,1,99.52,26.91Zm-2.71,2.82a5.85,5.85,0,0,0-3.69-1,4.78,4.78,0,0,0-2.87.83,2.48,2.48,0,0,0-1.16,2.06A2.25,2.25,0,0,0,90,33.43a3.46,3.46,0,0,0,2.2.74,4.5,4.5,0,0,0,3.18-1.32A4.16,4.16,0,0,0,96.81,29.73ZM64.39,17a11.13,11.13,0,0,1,3.26,8.15,11.87,11.87,0,0,1-1,4.83,11.57,11.57,0,0,1-2.85,3.91l1.54,2.3-2.22,1.45-1.5-2.25a12,12,0,0,1-5.29,1.27,10.89,10.89,0,0,1-8.07-3.32A11.2,11.2,0,0,1,45,25.18,11.18,11.18,0,0,1,48.26,17a11.42,11.42,0,0,1,16.13,0Zm.37,8.15a8.59,8.59,0,0,0-2.43-6.3,8,8,0,0,0-6-2.5,8.1,8.1,0,0,0-6,2.5,8.71,8.71,0,0,0-2.4,6.3,8.72,8.72,0,0,0,2.4,6.31,8.09,8.09,0,0,0,6,2.49,8.26,8.26,0,0,0,3.72-.86l-2.58-3.87,2.21-1.51,2.56,3.85A8.5,8.5,0,0,0,64.76,25.18ZM191.51,14.12l8.33,22.09H196.7l-2.13-6h-9.29l-2.16,6H180l8.33-22.09Zm2.07,13.45L190,17.6h-.13l-3.61,10Zm-83.26-6.93a5.7,5.7,0,0,0-2.78.74,5,5,0,0,0-2,1.84h-.12V21.13h-2.71V36.21h2.83V27.87a5,5,0,0,1,1.14-3.28,3.54,3.54,0,0,1,2.83-1.37q3.63,0,3.72,3.69V36.2h2.83V26.73a6.36,6.36,0,0,0-1.49-4.51A5.57,5.57,0,0,0,110.32,20.64Zm53.32,0a5.89,5.89,0,0,0-5.2,2.89,4.59,4.59,0,0,0-1.85-2.12,5.53,5.53,0,0,0-5.58,0,5,5,0,0,0-2,1.85h-.12V21.13h-2.71V36.2H149V27.87a5.08,5.08,0,0,1,1.11-3.27,3.39,3.39,0,0,1,2.74-1.38,3.14,3.14,0,0,1,2.58.94,4.83,4.83,0,0,1,.77,3.06v9h2.83V27.87a5.08,5.08,0,0,1,1.11-3.27,3.37,3.37,0,0,1,2.73-1.38,3.17,3.17,0,0,1,2.59.94,4.83,4.83,0,0,1,.77,3.06v9h2.83V26.79a6.64,6.64,0,0,0-1.42-4.56A5.14,5.14,0,0,0,163.64,20.63Zm38.79-6.51V36.21h2.84V14.12Zm-62.52,7v8.33a5,5,0,0,1-1.14,3.28,3.54,3.54,0,0,1-2.83,1.37q-3.63,0-3.72-3.69V21.13h-2.83v9.48a6.27,6.27,0,0,0,1.49,4.5,5.57,5.57,0,0,0,4.26,1.59,5.74,5.74,0,0,0,2.79-.74,5,5,0,0,0,2-1.85H140V36.2h2.7V21.13Zm-14.22,12.6a3,3,0,0,1-.67.07,1.9,1.9,0,0,1-1.32-.54,2.73,2.73,0,0,1-.58-2V23.71h3.69V21.13h-3.69V16.51h-2.83v4.62h-2.65v2.58h2.65v8.43a4.23,4.23,0,0,0,1.24,3.17,4.29,4.29,0,0,0,3.06,1.13,7.8,7.8,0,0,0,2.59-.39l-.9-2.52A4.53,4.53,0,0,1,125.69,33.73Z"/>
  </g>
</svg>
